<svg xmlns="http://www.w3.org/2000/svg" viewBox="0 0 64 64" aria-label="Skull with sunglasses and cigarette">
  <!-- skull (light) -->
  <path fill="#EDE8DF" d="M32 6c-12.7 0-23 10.3-23 23 0 8.4 4.6 15.8 11.3 19.7V55c0 2.2 1.8 4 4 4h3v-7h4v7h4v-7h4v7h3c2.2 0 4-1.8 4-4v-6.3C50.4 44.8 55 37.4 55 29 55 16.3 44.7 6 32 6z"/>

  <!-- nose cavity -->
  <!-- nose cavity (lower + higher contrast) -->
  <path fill="#000000" d="M29.3 35.0c0-3.9 2.6-7.6 5.7-7.6s5.7 3.7 5.7 7.6c0 3.1-2.4 6.0-5.7 6.0s-5.7-2.9-5.7-6.0z"/>
  <path fill="#000" opacity=".18" d="M33.2 29.0c.9-.6 1.8-.9 2.7-.9 2.1 0 3.8 1.7 4.5 4.0-2.5-.5-4.8 0-7.1 1.5-.2-1.8-.2-3.3-.1-4.6z"/>
  <!-- sunglasses: slightly smaller, round, thick rims -->
  <g>
    <!-- lenses -->
    <circle cx="23.5" cy="28.8" r="7.6" fill="#101010"/>
    <circle cx="40.5" cy="28.8" r="7.6" fill="#101010"/>

    <!-- rims -->
    <circle cx="23.5" cy="28.8" r="8.7" fill="none" stroke="#2A2A2A" stroke-width="2.4"/>
    <circle cx="40.5" cy="28.8" r="8.7" fill="none" stroke="#2A2A2A" stroke-width="2.4"/>

    <!-- bridge -->
    <path d="M31.4 28.9h1.2" stroke="#2A2A2A" stroke-width="2.4" stroke-linecap="round"/>

    <!-- small highlights -->
    <path d="M19.8 26.6c1.5-1.9 3.3-2.9 5.3-3.1" stroke="#fff" stroke-width="1.2" opacity=".22" stroke-linecap="round"/>
    <path d="M36.8 26.6c1.5-1.9 3.3-2.9 5.3-3.1" stroke="#fff" stroke-width="1.2" opacity=".22" stroke-linecap="round"/>
  </g>

  <!-- teeth hint -->
  <g opacity=".26" fill="#111">
    <rect x="24" y="44" width="16" height="6" rx="2"/>
    <rect x="27" y="44" width="2" height="6"/>
    <rect x="31" y="44" width="2" height="6"/>
    <rect x="35" y="44" width="2" height="6"/>
  </g>

  <!-- cigarette: simple, mostly monochrome, ember at tip -->
  <g transform="rotate(-12 20 46)">
    <!-- paper -->
    <rect x="7" y="46" width="24" height="4.4" rx="2.2" fill="#F7F4EF" stroke="#1A1A1A" stroke-width="1.5"/>
    <!-- ash tip -->
    <rect x="28.2" y="46" width="2.8" height="4.4" rx="1.2" fill="#2A2A2A"/>
    <!-- tiny ember line -->
    <rect x="27.2" y="46" width="1.2" height="4.4" fill="#B44A2A" opacity=".85"/>
    <!-- smoke squiggle (subtle) -->
    <path d="M6 44.3c1.7-1 2.1-2.2 1.1-3.3 1.5.4 2.4.1 3.1-1-.2 1.5-.8 2.6.7 4-1.4-.3-2.7.2-4.9.3z"
          fill="#B9B9B9" opacity=".6"/>
  </g>
</svg>